<svg class="svg-icon" style="width: 1em; height: 1em;vertical-align: middle;fill: currentColor;overflow: hidden;" viewBox="0 0 1024 1024" version="1.1" xmlns="http://www.w3.org/2000/svg"><path d="M742.671059 60.235294h-115.215059V42.586353A42.631529 42.631529 0 0 0 584.869647 0H233.336471a42.631529 42.631529 0 0 0-42.586353 42.586353V60.235294H81.844706c-37.662118 0-56.741647 14.245647-56.741647 42.345412v853.564235c0 30.72 25.298824 67.855059 56.741647 67.855059h660.826353c31.141647 0 50.432-35.237647 50.432-67.870118V102.580706C793.103059 60.235294 756.464941 60.235294 742.671059 60.235294zM220.867765 42.586353c0-6.881882 5.586824-12.468706 12.468706-12.468706h351.533176c6.881882 0 12.468706 5.586824 12.468706 12.468706v50.356706a12.468706 12.468706 0 0 1-12.468706 12.468706H233.336471a12.468706 12.468706 0 0 1-12.468706-12.468706V42.586353z m542.117647 913.543529c0 17.001412-9.366588 37.752471-20.314353 37.752471H81.844706c-11.941647 0-26.639059-20.811294-26.639059-37.752471V102.580706C55.220706 97.129412 55.220706 90.352941 81.844706 90.352941h108.890353v2.590118A42.631529 42.631529 0 0 0 233.321412 135.529412h351.533176a42.631529 42.631529 0 0 0 42.586353-42.586353V90.352941h115.215059c20.314353 0 20.314353 2.831059 20.314353 12.227765v853.549176z"  /><path d="M115.456 286.117647h572.235294v15.058824h-572.235294zM115.456 391.529412h572.235294v15.058823h-572.235294zM115.456 481.882353h572.235294v15.058823h-572.235294zM115.456 572.235294h451.764706v15.058824h-451.764706zM115.456 677.647059h361.411765v15.058823h-361.411765zM115.456 768h271.058824v15.058824h-271.058824zM971.128471 199.755294l-30.208-55.41647c-6.189176-12.333176-16.158118-19.395765-27.361883-19.395765-11.188706 0-21.157647 7.062588-27.211294 19.094588l-29.786353 56.154353c-6.324706 12.604235-18.296471 42.134588-18.29647 63.804235v704.271059c0 25.449412 26.202353 40.673882 51.531294 40.673882h49.889882c23.838118 0 49.167059-14.245647 49.167059-40.673882V263.996235c0.015059-21.202824-10.450824-49.754353-17.724235-64.240941z m-12.378353 768.512c0 6.881882-11.053176 10.556235-19.049412 10.556235h-49.889882c-10.601412 0-21.413647-5.330824-21.413648-10.556235V263.996235c0-12.679529 7.68-35.523765 14.938353-49.980235L893.003294 195.764706h41.667765l9.773176 17.935059c6.866824 13.718588 14.290824 36.833882 14.290824 50.29647v704.271059z"  /></svg>